<?xml version="1.0" encoding="UTF-8"?>
<svg id="Ebene_1" data-name="Ebene 1" xmlns="http://www.w3.org/2000/svg" viewBox="0 0 1417.32 1417.32">
  <defs>
    <style>
      .cls-1 {
        fill: #4daf50;
      }
    </style>
  </defs>
  <path class="cls-1" d="M584.95,491.52c29.18,0,52.93,23.75,52.93,52.93l-60.65,293.65,60.65,161.9v114.72c0,29.18-23.75,52.93-52.93,52.93H235.31c-29.18,0-52.93-23.75-52.93-52.93V544.45c0-29.18,23.75-52.93,52.93-52.93h349.64m0-159.75H235.31c-117.43,0-212.68,95.25-212.68,212.68v570.28c0,117.43,95.25,212.68,212.68,212.68h349.64c117.43,0,212.68-95.25,212.68-212.68v-110.13l-208.34-130.33c0-80.73,163.32-480.81,97.02-516.83-30.13-16.37-64.67-25.67-101.36-25.67h0Z"/>
  <path class="cls-1" d="M1215.79,349.63c27.59,9.48,42.34,39.66,32.86,67.25l-185.26,539.35c-9.48,27.59-39.66,42.34-67.25,32.86l-330.68-113.59c-27.59-9.48-42.34-39.66-32.86-67.25l185.26-539.35c9.48-27.59,39.66-42.34,67.25-32.86l330.68,113.59m51.9-151.09l-330.68-113.59c-111.06-38.15-232.09,20.99-270.24,132.05l-185.26,539.35c-38.15,111.06,20.99,232.09,132.05,270.24l330.68,113.59c111.06,38.15,232.09-20.99,270.24-132.05l185.26-539.35c38.15-111.06-20.99-232.09-132.05-270.24h0Z"/>
</svg>